<svg width="40" height="40" viewBox="0 0 40 40" fill="none" xmlns="http://www.w3.org/2000/svg">
<g clip-path="url(#clip0_5_63)">
<path d="M19.0625 0.0390625C19 0.0546875 18.6797 0.109375 18.3594 0.15625C17.5391 0.289062 16.5156 0.640625 15.6797 1.07031C13.3281 2.28906 11.5938 4.46094 10.8828 7.08594C10.6875 7.79688 10.6719 7.96875 10.6719 9.41406C10.6719 10.8594 10.6875 11.0312 10.8828 11.7422C11.3359 13.4219 12.1406 14.8203 13.3516 16.0234C14.6172 17.2812 16.0078 18.0859 17.7188 18.5312C18.5703 18.7578 18.7266 18.7734 20 18.7734C21.2813 18.7734 21.4219 18.7578 22.3047 18.5312C25.6641 17.6484 28.2109 15.1016 29.125 11.7188C29.3125 11.0391 29.3281 10.8438 29.3281 9.41406C29.3281 7.96094 29.3125 7.79688 29.125 7.08594C28.1797 3.625 25.4844 1.01562 22.0313 0.226562C21.4219 0.0859375 19.3906 -0.046875 19.0625 0.0390625ZM24.3594 6.27344L25.1563 7.07031L21.9922 10.2344L18.8281 13.3984L17.0313 11.6016L15.2344 9.80469L16.0547 8.98438L16.875 8.16406L17.8359 9.125L18.7891 10.0781L21.0938 7.77344C22.3594 6.50781 23.4297 5.46875 23.4766 5.46875C23.5234 5.46875 23.9141 5.82812 24.3594 6.27344Z" fill="url(#paint0_linear_5_63)"/>
<path d="M2.34375 22.3828V32.9688H20H37.6562V22.3828V11.7969H34.5781H31.5L31.4453 12.0859C31.2578 13.1094 30.4922 14.875 29.7891 15.9219C28.2969 18.1328 26.1484 19.7656 23.6406 20.5859C18.6875 22.2109 13.1641 20.3203 10.2734 16.0078C9.5 14.8516 8.84375 13.3984 8.59375 12.2422L8.49219 11.7969H5.41406H2.34375V22.3828ZM12.9688 24.6875V25.8594H10H7.03125V24.6875V23.5156H10H12.9688V24.6875ZM32.9531 27.0469L32.9297 30.5859H28.2422H23.5547L23.5312 27.0469L23.5156 23.5156H28.2422H32.9688L32.9531 27.0469ZM20 29.4141V30.625L13.5391 30.6094L7.07031 30.5859L7.04688 29.4922C7.03906 28.8984 7.04688 28.3594 7.0625 28.3047C7.09375 28.2188 8.33594 28.2031 13.5547 28.2031H20V29.4141Z" fill="url(#paint1_linear_5_63)"/>
<path d="M25.9141 25.9141C25.8828 25.9375 25.8594 26.4688 25.8594 27.0859V28.2031H28.2422H30.6328L30.6094 27.0469L30.5859 25.8984L28.2734 25.875C27.0078 25.8672 25.9453 25.8828 25.9141 25.9141Z" fill="url(#paint2_linear_5_63)"/>
<path d="M0.15625 35.4141C0.15625 35.6172 0.460938 36.4063 0.757812 36.9766C0.960938 37.375 1.25781 37.7422 1.75781 38.25C2.35156 38.8516 2.57812 39.0156 3.20312 39.3203C4.625 40.0234 3.02344 39.9609 20 39.9609C36.9766 39.9609 35.375 40.0234 36.7969 39.3203C37.4219 39.0156 37.6484 38.8516 38.2422 38.25C38.7422 37.7422 39.0391 37.375 39.2422 36.9766C39.5391 36.4063 39.8438 35.6172 39.8438 35.4141C39.8438 35.3281 36.5625 35.3125 20 35.3125C3.4375 35.3125 0.15625 35.3281 0.15625 35.4141Z" fill="url(#paint3_linear_5_63)"/>
</g>
<defs>
<linearGradient id="paint0_linear_5_63" x1="9.2822" y1="4.13895" x2="35.9659" y2="22.5724" gradientUnits="userSpaceOnUse">
<stop offset="0.021408"/>
<stop offset="1" stop-color="#8B8B8B" stop-opacity="0"/>
</linearGradient>
<linearGradient id="paint1_linear_5_63" x1="-0.286615" y1="16.4542" x2="31.5624" y2="53.358" gradientUnits="userSpaceOnUse">
<stop offset="0.021408"/>
<stop offset="1" stop-color="#8B8B8B" stop-opacity="0"/>
</linearGradient>
<linearGradient id="paint2_linear_5_63" x1="25.5038" y1="26.3856" x2="28.8374" y2="31.1299" gradientUnits="userSpaceOnUse">
<stop offset="0.021408"/>
<stop offset="1" stop-color="#8B8B8B" stop-opacity="0"/>
</linearGradient>
<linearGradient id="paint3_linear_5_63" x1="-2.8" y1="36.3354" x2="-0.480995" y2="50.086" gradientUnits="userSpaceOnUse">
<stop offset="0.021408"/>
<stop offset="1" stop-color="#8B8B8B" stop-opacity="0"/>
</linearGradient>
<clipPath id="clip0_5_63">
<rect width="40" height="40" fill="white"/>
</clipPath>
</defs>
</svg>
